<?xml version="1.0" standalone="no"?>
<!DOCTYPE svg PUBLIC "-//W3C//DTD SVG 20010904//EN"
 "http://www.w3.org/TR/2001/REC-SVG-20010904/DTD/svg10.dtd">
<svg version="1.0" xmlns="http://www.w3.org/2000/svg"
 width="96.000000pt" height="96.000000pt" viewBox="0 0 96.000000 96.000000"
 preserveAspectRatio="xMidYMid meet">
<metadata>
Created by potrace 1.11, written by Peter Selinger 2001-2013
</metadata>
<g transform="translate(0.000000,96.000000) scale(0.100000,-0.100000)"
fill="#000000" stroke="none">
<path d="M592 856 c20 -19 41 -43 47 -53 9 -16 10 -16 11 -1 0 20 -34 57 -70
76 -19 10 -16 5 12 -22z"/>
<path d="M361 808 c-12 -31 -1 -48 88 -148 84 -95 70 -85 -61 40 -49 47 -102
91 -118 97 -26 11 -31 10 -44 -8 -8 -12 -12 -29 -9 -38 6 -16 97 -123 180
-211 63 -67 44 -60 -33 13 -131 123 -148 137 -170 137 -23 0 -41 -17 -38 -37
1 -7 2 -17 3 -22 0 -5 48 -57 106 -116 58 -59 105 -110 105 -112 0 -4 -96 74
-128 104 -17 17 -58 27 -77 19 -36 -13 -15 -54 74 -148 49 -51 104 -111 122
-134 19 -22 57 -60 85 -83 104 -87 170 -112 230 -86 38 16 207 182 229 226 22
42 21 114 -3 249 -32 172 -32 172 -38 210 -8 47 -26 64 -59 56 -30 -8 -64 -72
-65 -121 0 -45 -19 -105 -35 -111 -18 -7 -41 9 -118 83 -174 167 -208 188
-226 141z"/>
<path d="M559 798 c17 -17 34 -29 37 -25 8 7 -41 57 -57 57 -6 0 3 -14 20 -32z"/>
<path d="M117 383 c-7 -11 13 -37 40 -51 14 -8 24 -9 28 -2 3 5 -1 10 -9 10
-8 0 -24 11 -34 25 -11 14 -23 22 -25 18z"/>
<path d="M46 368 c3 -10 10 -18 16 -18 5 0 7 -4 4 -9 -3 -5 9 -23 26 -40 50
-49 44 -21 -7 35 -25 27 -43 41 -39 32z"/>
<path d="M146 272 c-3 -5 1 -9 9 -9 8 0 12 4 9 9 -3 4 -7 8 -9 8 -2 0 -6 -4
-9 -8z"/>
</g>
</svg>
